<svg xmlns="http://www.w3.org/2000/svg" viewBox="0 0 960 420" fill="none" aria-hidden="true">
  <defs>
    <linearGradient id="bs-left" x1="0%" y1="0%" x2="100%" y2="100%">
      <stop offset="0%" style="stop-color:#c2410c"/>
      <stop offset="100%" style="stop-color:#ea580c"/>
    </linearGradient>
    <linearGradient id="bs-right" x1="0%" y1="0%" x2="100%" y2="100%">
      <stop offset="0%" style="stop-color:#0369a1"/>
      <stop offset="100%" style="stop-color:#0ea5e9"/>
    </linearGradient>
    <linearGradient id="bs-fold" x1="0%" y1="0%" x2="0%" y2="100%">
      <stop offset="0%" style="stop-color:#fff;stop-opacity:0.12"/>
      <stop offset="100%" style="stop-color:#fff;stop-opacity:0"/>
    </linearGradient>
  </defs>
  <rect x="8" y="8" width="460" height="404" rx="20" fill="url(#bs-left)"/>
  <rect x="8" y="8" width="460" height="404" rx="20" fill="url(#bs-fold)" opacity="0.5"/>
  <text x="48" y="72" fill="white" font-family="system-ui,sans-serif" font-size="36" font-weight="800">Travel</text>
  <text x="48" y="108" fill="rgba(255,255,255,0.9)" font-family="system-ui,sans-serif" font-size="16" font-weight="600">Pesan perjalanan, lacak driver</text>
  <path d="M48 200 L120 160 L200 200 L280 140 L360 190" stroke="rgba(255,255,255,0.85)" stroke-width="4" stroke-linecap="round" stroke-linejoin="round" fill="none"/>
  <circle cx="48" cy="200" r="10" fill="#fff"/>
  <circle cx="360" cy="190" r="10" fill="#fef08a"/>
  <g transform="translate(300 240)">
    <rect x="0" y="10" width="100" height="44" rx="10" fill="rgba(15,23,42,0.35)"/>
    <rect x="0" y="18" width="100" height="36" rx="8" fill="#fff" fill-opacity="0.95"/>
    <rect x="58" y="24" width="32" height="22" rx="4" fill="#bae6fd"/>
    <circle cx="22" cy="58" r="12" fill="#0f172a"/>
    <circle cx="78" cy="58" r="12" fill="#0f172a"/>
  </g>
  <rect x="492" y="8" width="460" height="404" rx="20" fill="url(#bs-right)"/>
  <rect x="492" y="8" width="460" height="404" rx="20" fill="url(#bs-fold)" opacity="0.4"/>
  <text x="532" y="72" fill="white" font-family="system-ui,sans-serif" font-size="36" font-weight="800">Kirim barang</text>
  <text x="532" y="108" fill="rgba(255,255,255,0.9)" font-family="system-ui,sans-serif" font-size="16" font-weight="600">Antar kota, status pengiriman</text>
  <g transform="translate(532 200)">
    <rect x="0" y="20" width="120" height="96" rx="12" fill="rgba(15,23,42,0.25)" stroke="rgba(255,255,255,0.5)" stroke-width="2"/>
    <rect x="16" y="8" width="88" height="28" rx="6" fill="#fef9c3"/>
    <path d="M30 100 L60 70 L90 100" stroke="white" stroke-width="3" fill="none" stroke-linecap="round"/>
    <circle cx="60" cy="118" r="8" fill="#f97316"/>
  </g>
  <g transform="translate(720 210)">
    <rect x="0" y="0" width="88" height="72" rx="10" fill="#fff" fill-opacity="0.95"/>
    <rect x="12" y="-10" width="64" height="18" rx="4" fill="#fde68a"/>
    <rect x="24" y="22" width="40" height="36" rx="5" fill="#0ea5e9" fill-opacity="0.35" stroke="#0369a1" stroke-width="2"/>
    <path d="M34 22V40h20V22" stroke="#0369a1" stroke-width="2" fill="none"/>
  </g>
  <rect x="468" y="8" width="24" height="404" fill="black" opacity="0.15"/>
</svg>
