<svg xmlns="http://www.w3.org/2000/svg" viewBox="0 0 440 400" fill="none" aria-hidden="true">
  <defs>
    <linearGradient id="ph-sky" x1="0%" y1="0%" x2="100%" y2="100%">
      <stop offset="0%" style="stop-color:#1e293b"/>
      <stop offset="100%" style="stop-color:#0f172a"/>
    </linearGradient>
    <linearGradient id="ph-glow" x1="50%" y1="0%" x2="50%" y2="100%">
      <stop offset="0%" style="stop-color:#f97316;stop-opacity:0.35"/>
      <stop offset="100%" style="stop-color:#f97316;stop-opacity:0"/>
    </linearGradient>
  </defs>
  <rect width="440" height="400" rx="24" fill="url(#ph-sky)"/>
  <ellipse cx="220" cy="360" rx="200" ry="40" fill="url(#ph-glow)"/>
  <rect x="125" y="48" width="190" height="310" rx="22" fill="#334155" stroke="#475569" stroke-width="2"/>
  <rect x="135" y="68" width="170" height="270" rx="14" fill="#0f172a"/>
  <path d="M155 200 Q200 120 245 160 T315 200" stroke="#f97316" stroke-width="3" stroke-linecap="round" fill="none" opacity="0.9"/>
  <circle cx="160" cy="198" r="8" fill="#22c55e"/>
  <circle cx="310" cy="198" r="8" fill="#f97316"/>
  <rect x="165" y="230" width="110" height="8" rx="4" fill="#334155"/>
  <rect x="165" y="248" width="80" height="8" rx="4" fill="#334155"/>
  <rect x="165" y="266" width="95" height="8" rx="4" fill="#334155"/>
  <g transform="translate(268 88)">
    <rect x="0" y="18" width="72" height="36" rx="8" fill="#f97316"/>
    <rect x="48" y="26" width="22" height="18" rx="4" fill="#fed7aa"/>
    <circle cx="16" cy="58" r="10" fill="#1e293b" stroke="#64748b" stroke-width="2"/>
    <circle cx="56" cy="58" r="10" fill="#1e293b" stroke="#64748b" stroke-width="2"/>
  </g>
  <g transform="translate(52 108)">
    <rect x="0" y="8" width="44" height="40" rx="6" fill="#ea580c" opacity="0.9"/>
    <rect x="8" y="0" width="28" height="12" rx="3" fill="#fdba74"/>
  </g>
  <rect x="150" y="318" width="140" height="28" rx="14" fill="#1e293b" stroke="#f97316" stroke-opacity="0.4"/>
  <text x="220" y="337" text-anchor="middle" fill="#fdba74" font-family="system-ui,sans-serif" font-size="11" font-weight="700">TRAVEL - KIRIM BARANG</text>
</svg>
